<?xml version="1.0" encoding="utf-8"?>
<!-- Generator: Adobe Illustrator 27.5.0, SVG Export Plug-In . SVG Version: 6.00 Build 0)  -->
<svg version="1.1" id="Layer_1" xmlns="http://www.w3.org/2000/svg" xmlns:xlink="http://www.w3.org/1999/xlink" x="0px" y="0px"
	 viewBox="0 0 283.352 141.474" style="enable-background:new 0 0 283.352 141.474;" xml:space="preserve">
<g>
	<g>
		<path style="fill:#FFFFFF;" d="M276.247,51.414c-0.292-4.947-4.037-10.418-13.671-10.933c-0.62-0.033-1.033-0.034-1.637,0.053
			c-0.557,0.044-5.423,0.354-11.759-1.813c-4.698-1.608-9.824-3.264-16.133-5.211c-17.822-5.502-38.636-10.457-60.118,0.444
			c-4.629,2.337-9.288,3.991-10.913,4.139c-1.19-0.176-2.701-0.633-4.582-1.204c-1.291-0.391-2.753-0.834-4.388-1.269
			c-1.701-0.454-3.501-0.858-5.351-1.202c-0.394-0.072-0.792-0.121-1.191-0.145c-1.825-0.104-3.602-0.142-5.438-0.112
			c-1.75,0.027-3.31,0.108-4.687,0.181c-1.937,0.101-3.492,0.183-4.63,0.081c-1.535-0.53-5.551-3.155-9.603-6.628
			c-18.235-15.757-39.643-15.934-58.289-14.864c-6.54,0.38-11.91,0.759-16.906,1.191c-6.663,0.583-11.322-0.889-11.85-1.066
			c-0.568-0.23-0.975-0.33-1.59-0.446c-9.462-1.791-14.401,2.622-15.862,7.332c-0.245,0.782-0.813,2.597-1.705,12.569
			c-0.986,5.535,1.733,12.145,9.161,14.455c0.042,0.013,0.084,0.025,0.125,0.038c0.014,1.089,0.013,2.191,0.013,3.333
			c-0.003,5.424-0.006,12.117,1.438,22.07c-5.437,13.646-7.528,22.322-7.723,23.152c-0.7,2.947-0.473,7.42,2.251,11.228
			c1.854,2.591,5.52,5.81,12.44,6.42c7.037,0.63,11.371-2.374,14.118-6.122c8.159,6.206,18.028,10.255,28.536,11.533
			c2.52,0.306,5.024,0.455,7.505,0.455c19.019-0.002,36.506-8.791,45.894-23.537c3.939-6.199,6.871-13.328,8.948-21.733
			c0.272-1.069,0.514-2.168,0.755-3.275c0.384-1.756,0.776-3.553,1.286-4.909c1.704,0.158,3.415,0.316,5.131,0.477
			c0.193,1.472,0.14,3.373,0.087,5.229c-0.032,1.131-0.061,2.252-0.056,3.313c0.011,8.884,1.117,16.287,3.481,23.3
			c6.314,18.729,24.498,32.545,46.322,35.194c7.656,0.933,15.302,0.384,22.563-1.581c2.287,3.229,5.686,5.25,10.18,6.037
			c1.373,0.242,2.646,0.349,3.824,0.349c4.704,0,7.897-1.701,9.869-3.316c3.627-2.972,5.01-7.237,5.099-10.265
			c0.016-0.52,0.12-4.489-0.275-11.181c2.463-3.006,4.563-6.241,6.279-9.676c0.463-0.621,0.857-1.308,1.167-2.049
			c4.147-9.933,5.834-16.758,7.19-22.241c0.284-1.148,0.557-2.256,0.846-3.356c0.056-0.003,0.113-0.007,0.171-0.01
			c7.726-0.47,11.946-6.235,12.318-11.838c1.515-9.875,1.402-11.83,1.359-12.574C276.247,51.424,276.247,51.419,276.247,51.414z"/>
		<path style="fill:#F1F1F1;" d="M275.458,50.627c-0.292-4.948-4.037-10.419-13.671-10.934c-0.62-0.033-1.032-0.034-1.637,0.054
			c-0.557,0.043-5.423,0.353-11.759-1.815c-4.697-1.608-9.824-3.264-16.133-5.211c-17.822-5.502-38.635-10.457-60.118,0.444
			c-4.629,2.338-9.287,3.992-10.913,4.14c-1.191-0.176-2.701-0.634-4.582-1.204c-1.291-0.392-2.753-0.835-4.388-1.27
			c-1.701-0.454-3.502-0.858-5.351-1.202c-0.393-0.072-0.791-0.121-1.191-0.144c-1.826-0.104-3.603-0.144-5.439-0.113
			c-1.749,0.028-3.31,0.109-4.687,0.181c-1.936,0.101-3.492,0.183-4.63,0.081c-1.534-0.53-5.558-3.146-9.603-6.628
			c-18.267-15.72-39.643-15.934-58.289-14.864c-6.54,0.38-11.91,0.759-16.905,1.191c-6.663,0.584-11.322-0.889-11.85-1.064
			c-0.569-0.231-0.975-0.33-1.591-0.447c-9.462-1.79-14.4,2.622-15.862,7.332c-0.245,0.783-0.812,2.597-1.704,12.569
			c-0.987,5.535,1.732,12.145,9.161,14.455c0.042,0.013,0.084,0.025,0.126,0.038c0.014,1.09,0.013,2.191,0.012,3.333
			c-0.002,5.425-0.006,12.117,1.438,22.07c-5.437,13.647-7.528,22.322-7.723,23.152c-0.701,2.948-0.474,7.42,2.25,11.228
			c1.854,2.592,5.52,5.81,12.44,6.42c7.038,0.63,11.372-2.374,14.118-6.122c8.159,6.206,18.028,10.255,28.536,11.533
			c2.519,0.306,5.023,0.455,7.505,0.455c19.019-0.001,36.506-8.79,45.894-23.537c3.939-6.199,6.842-13.335,8.948-21.733
			c0.269-1.07,0.514-2.168,0.756-3.275c0.383-1.756,0.776-3.553,1.285-4.909c1.704,0.158,3.415,0.317,5.131,0.478
			c0.193,1.471,0.14,3.372,0.087,5.229c-0.032,1.13-0.059,2.252-0.056,3.312c0.031,8.884,1.117,16.287,3.481,23.3
			c6.314,18.73,24.497,32.545,46.322,35.194c7.656,0.933,15.302,0.384,22.563-1.581c2.288,3.23,5.687,5.25,10.18,6.037
			c1.373,0.242,2.646,0.349,3.824,0.349c4.704,0,7.898-1.701,9.869-3.316c3.627-2.972,5.01-7.237,5.099-10.264
			c0.016-0.521,0.12-4.489-0.275-11.182c2.463-3.006,4.563-6.241,6.279-9.675c0.463-0.622,0.857-1.308,1.167-2.049
			c4.147-9.934,5.834-16.758,7.19-22.242c0.284-1.148,0.557-2.256,0.846-3.356c0.056-0.003,0.113-0.006,0.17-0.01
			c7.727-0.452,11.946-6.235,12.318-11.838c1.515-9.875,1.402-11.83,1.359-12.574C275.459,50.637,275.459,50.631,275.458,50.627z"/>
		<path style="fill:#E2E2E2;" d="M274.67,49.839c-0.292-4.948-4.036-10.419-13.67-10.933c-0.62-0.033-1.033-0.035-1.637,0.053
			c-0.557,0.043-5.423,0.353-11.758-1.813c-4.698-1.608-9.824-3.265-16.133-5.212c-17.822-5.502-38.636-10.457-60.118,0.445
			c-4.629,2.337-9.288,3.991-10.913,4.139c-1.19-0.176-2.701-0.634-4.582-1.204c-1.291-0.392-2.753-0.835-4.388-1.269
			c-1.701-0.455-3.502-0.859-5.351-1.203c-0.394-0.072-0.792-0.121-1.191-0.144c-1.825-0.104-3.602-0.144-5.439-0.113
			c-1.749,0.028-3.31,0.109-4.686,0.182c-1.937,0.101-3.492,0.182-4.63,0.081c-1.535-0.531-5.558-3.147-9.604-6.629
			c-18.267-15.72-39.643-15.934-58.289-14.864c-6.54,0.38-11.91,0.759-16.906,1.192c-6.663,0.583-11.322-0.889-11.85-1.066
			c-0.568-0.23-0.975-0.33-1.59-0.447c-9.462-1.79-14.401,2.622-15.862,7.332c-0.245,0.783-0.813,2.598-1.705,12.569
			c-0.986,5.535,1.733,12.145,9.161,14.455c0.042,0.014,0.084,0.025,0.125,0.039c0.014,1.089,0.013,2.191,0.013,3.332
			c-0.003,5.425-0.006,12.117,1.438,22.07c-5.437,13.647-7.528,22.322-7.723,23.152c-0.7,2.948-0.473,7.42,2.251,11.228
			c1.854,2.592,5.52,5.81,12.44,6.42c7.037,0.631,11.371-2.374,14.118-6.122c8.159,6.207,18.028,10.255,28.536,11.533
			c2.52,0.307,5.024,0.455,7.505,0.455c19.019-0.001,36.506-8.79,45.894-23.537c3.939-6.198,6.843-13.334,8.948-21.733
			c0.268-1.069,0.513-2.167,0.755-3.275c0.384-1.756,0.776-3.553,1.286-4.909c1.704,0.158,3.415,0.317,5.131,0.478
			c0.193,1.471,0.14,3.372,0.087,5.229c-0.032,1.13-0.059,2.252-0.056,3.312c0.031,8.884,1.117,16.287,3.481,23.3
			c6.314,18.73,24.497,32.545,46.322,35.194c7.656,0.933,15.302,0.384,22.563-1.581c2.287,3.23,5.687,5.251,10.18,6.038
			c1.373,0.241,2.645,0.348,3.824,0.348c4.704,0,7.898-1.701,9.869-3.316c3.627-2.972,5.01-7.237,5.099-10.264
			c0.016-0.521,0.12-4.489-0.275-11.182c2.463-3.006,4.563-6.241,6.279-9.675c0.463-0.622,0.857-1.308,1.167-2.049
			c4.147-9.933,5.834-16.758,7.19-22.241c0.284-1.149,0.557-2.257,0.846-3.357c0.056-0.003,0.113-0.006,0.171-0.01
			c7.727-0.452,11.946-6.235,12.318-11.838c1.515-9.874,1.402-11.83,1.359-12.574C274.671,49.849,274.671,49.844,274.67,49.839z"/>
		<path style="fill:#D4D4D4;" d="M273.883,49.051c-0.292-4.948-4.037-10.419-13.671-10.933c-0.62-0.033-1.032-0.034-1.637,0.053
			c-0.557,0.044-5.423,0.353-11.759-1.813c-4.697-1.608-9.824-3.265-16.133-5.212c-17.822-5.501-38.635-10.457-60.118,0.445
			c-4.629,2.337-9.288,3.991-10.913,4.139c-1.191-0.176-2.701-0.634-4.583-1.204c-1.29-0.391-2.753-0.834-4.388-1.269
			c-1.701-0.455-3.501-0.859-5.351-1.202c-0.393-0.073-0.791-0.121-1.191-0.144c-1.826-0.104-3.603-0.143-5.439-0.113
			c-1.749,0.028-3.31,0.109-4.687,0.182c-1.936,0.101-3.492,0.182-4.63,0.081c-1.534-0.53-5.558-3.148-9.603-6.629
			C101.516,9.711,80.139,9.497,61.494,10.566c-6.54,0.381-11.91,0.759-16.906,1.192c-6.663,0.583-11.321-0.889-11.85-1.065
			c-0.569-0.231-0.975-0.33-1.591-0.447c-9.462-1.79-14.401,2.623-15.862,7.332c-0.245,0.783-0.812,2.598-1.704,12.57
			c-0.987,5.534,1.732,12.144,9.161,14.454c0.042,0.014,0.084,0.026,0.126,0.039c0.014,1.089,0.013,2.191,0.012,3.332
			c-0.003,5.425-0.006,12.117,1.438,22.07c-5.437,13.647-7.528,22.322-7.723,23.152c-0.701,2.948-0.474,7.421,2.25,11.228
			c1.854,2.592,5.52,5.81,12.44,6.42c7.038,0.631,11.372-2.374,14.118-6.121c8.159,6.206,18.028,10.254,28.536,11.533
			c2.519,0.306,5.023,0.455,7.505,0.455c19.019-0.002,36.506-8.791,45.895-23.538c3.939-6.198,6.842-13.334,8.948-21.733
			c0.269-1.069,0.514-2.167,0.756-3.275c0.383-1.756,0.776-3.553,1.285-4.908c1.704,0.157,3.415,0.316,5.131,0.476
			c0.193,1.472,0.14,3.372,0.087,5.229c-0.032,1.131-0.059,2.252-0.056,3.313c0.03,8.883,1.117,16.287,3.481,23.299
			c6.314,18.73,24.497,32.545,46.322,35.195c7.656,0.932,15.302,0.383,22.563-1.582c2.288,3.23,5.686,5.251,10.18,6.038
			c1.373,0.241,2.646,0.349,3.824,0.349c4.704,0,7.898-1.702,9.869-3.317c3.627-2.972,5.01-7.237,5.099-10.264
			c0.017-0.52,0.121-4.489-0.275-11.182c2.463-3.006,4.563-6.241,6.279-9.675c0.463-0.621,0.857-1.308,1.167-2.049
			c4.147-9.933,5.834-16.758,7.19-22.241c0.284-1.148,0.557-2.257,0.846-3.356c0.056-0.004,0.113-0.007,0.171-0.01
			c7.727-0.453,11.946-6.236,12.318-11.839c1.515-9.874,1.402-11.829,1.359-12.574C273.884,49.061,273.883,49.056,273.883,49.051z"
			/>
		<path style="fill:#C5C5C5;" d="M273.095,48.263c-0.292-4.947-4.037-10.419-13.67-10.933c-0.62-0.033-1.033-0.034-1.637,0.053
			c-0.557,0.044-5.423,0.354-11.758-1.813c-4.698-1.608-9.824-3.265-16.133-5.212c-17.822-5.501-38.636-10.457-60.118,0.445
			c-4.629,2.337-9.288,3.991-10.913,4.139c-1.191-0.176-2.701-0.633-4.582-1.204c-1.29-0.391-2.753-0.834-4.388-1.269
			c-1.701-0.455-3.502-0.859-5.351-1.202c-0.394-0.073-0.792-0.121-1.191-0.144c-1.825-0.105-3.602-0.143-5.439-0.112
			c-1.749,0.027-3.309,0.108-4.687,0.181c-1.936,0.101-3.492,0.183-4.629,0.081c-1.535-0.53-5.558-3.146-9.604-6.629
			C100.728,8.924,79.352,8.709,60.706,9.779c-6.541,0.38-11.91,0.758-16.906,1.191c-6.663,0.583-11.322-0.889-11.85-1.065
			c-0.569-0.231-0.975-0.33-1.59-0.446c-9.462-1.791-14.401,2.622-15.863,7.332c-0.245,0.782-0.812,2.597-1.704,12.569
			c-0.987,5.534,1.733,12.145,9.161,14.455c0.042,0.013,0.084,0.025,0.125,0.038c0.014,1.089,0.013,2.191,0.013,3.332
			c-0.003,5.425-0.006,12.117,1.438,22.07c-5.437,13.647-7.528,22.322-7.723,23.153c-0.7,2.947-0.474,7.42,2.251,11.228
			c1.854,2.591,5.52,5.809,12.44,6.42c7.037,0.63,11.371-2.375,14.118-6.122c8.159,6.206,18.028,10.255,28.536,11.533
			c2.519,0.306,5.024,0.455,7.505,0.455c19.019-0.002,36.506-8.791,45.894-23.538c3.939-6.198,6.842-13.334,8.948-21.733
			c0.268-1.07,0.513-2.168,0.755-3.275c0.384-1.757,0.776-3.553,1.286-4.909c1.704,0.157,3.414,0.316,5.131,0.477
			c0.193,1.472,0.139,3.372,0.087,5.229c-0.032,1.131-0.059,2.252-0.056,3.313c0.031,8.884,1.117,16.287,3.481,23.3
			c6.314,18.729,24.497,32.545,46.322,35.194c7.656,0.933,15.301,0.384,22.563-1.581c2.287,3.229,5.687,5.25,10.179,6.037
			c1.374,0.242,2.646,0.349,3.824,0.349c4.704,0,7.898-1.702,9.869-3.316c3.627-2.972,5.011-7.237,5.099-10.265
			c0.016-0.52,0.12-4.489-0.275-11.182c2.463-3.006,4.563-6.24,6.279-9.675c0.463-0.621,0.857-1.308,1.167-2.049
			c4.147-9.933,5.834-16.758,7.19-22.241c0.284-1.148,0.557-2.256,0.846-3.356c0.056-0.003,0.113-0.007,0.17-0.01
			c7.727-0.453,11.947-6.236,12.318-11.839c1.514-9.874,1.402-11.829,1.359-12.573C273.096,48.272,273.095,48.268,273.095,48.263z"
			/>
		<path style="fill:#B7B7B7;" d="M272.307,47.476c-0.292-4.948-4.037-10.419-13.671-10.934c-0.62-0.033-1.032-0.034-1.637,0.054
			c-0.557,0.043-5.423,0.353-11.759-1.814c-4.697-1.608-9.824-3.264-16.133-5.211c-17.822-5.502-38.635-10.457-60.118,0.444
			c-4.629,2.338-9.288,3.991-10.913,4.14c-1.191-0.176-2.701-0.634-4.583-1.205c-1.29-0.391-2.753-0.834-4.388-1.268
			c-1.701-0.454-3.501-0.858-5.351-1.202c-0.393-0.072-0.792-0.121-1.191-0.145c-1.826-0.104-3.602-0.143-5.439-0.112
			c-1.75,0.028-3.31,0.108-4.687,0.181c-1.936,0.101-3.492,0.183-4.63,0.081c-1.535-0.53-5.558-3.146-9.604-6.628
			C99.94,8.136,78.563,7.922,59.918,8.991c-6.54,0.38-11.91,0.759-16.906,1.192c-6.663,0.582-11.321-0.89-11.85-1.066
			c-0.568-0.231-0.975-0.329-1.59-0.446c-9.462-1.791-14.401,2.622-15.862,7.332c-0.245,0.782-0.813,2.597-1.705,12.569
			c-0.986,5.535,1.733,12.145,9.161,14.455c0.042,0.013,0.084,0.025,0.125,0.038c0.014,1.089,0.013,2.191,0.013,3.333
			c-0.002,5.424-0.006,12.117,1.438,22.07c-5.437,13.647-7.528,22.322-7.723,23.152c-0.701,2.947-0.474,7.42,2.251,11.228
			c1.854,2.591,5.52,5.81,12.44,6.42c7.037,0.63,11.371-2.374,14.118-6.122c8.159,6.206,18.028,10.255,28.536,11.533
			c2.519,0.306,5.024,0.455,7.505,0.455c19.019-0.001,36.506-8.791,45.895-23.537c3.939-6.199,6.842-13.335,8.948-21.733
			c0.268-1.07,0.514-2.168,0.756-3.275c0.383-1.756,0.776-3.553,1.285-4.909c1.704,0.158,3.415,0.316,5.131,0.477
			c0.193,1.472,0.14,3.373,0.087,5.229c-0.032,1.131-0.059,2.253-0.055,3.313c0.03,8.884,1.117,16.287,3.481,23.3
			c6.314,18.729,24.497,32.545,46.322,35.194c7.656,0.933,15.302,0.384,22.563-1.581c2.288,3.23,5.687,5.25,10.18,6.037
			c1.373,0.242,2.646,0.349,3.824,0.349c4.704,0,7.898-1.701,9.869-3.316c3.627-2.972,5.01-7.237,5.099-10.264
			c0.017-0.521,0.12-4.49-0.275-11.182c2.463-3.006,4.563-6.241,6.279-9.676c0.463-0.621,0.857-1.307,1.167-2.049
			c4.147-9.933,5.835-16.758,7.19-22.241c0.284-1.148,0.557-2.256,0.846-3.356c0.056-0.003,0.113-0.006,0.171-0.01
			c7.727-0.453,11.946-6.235,12.318-11.838c1.515-9.875,1.402-11.83,1.359-12.574C272.308,47.484,272.308,47.479,272.307,47.476z"/>
		<path style="fill:#A8A8A8;" d="M271.519,46.688c-0.292-4.948-4.037-10.419-13.67-10.934c-0.62-0.033-1.033-0.034-1.637,0.054
			c-0.557,0.043-5.423,0.353-11.758-1.813c-4.698-1.609-9.825-3.265-16.133-5.212c-17.822-5.502-38.635-10.457-60.118,0.444
			c-4.629,2.338-9.288,3.992-10.913,4.14c-1.191-0.176-2.701-0.634-4.582-1.204c-1.29-0.392-2.753-0.835-4.388-1.27
			c-1.701-0.454-3.502-0.858-5.351-1.202c-0.394-0.072-0.792-0.121-1.191-0.143c-1.825-0.104-3.602-0.144-5.439-0.113
			c-1.75,0.028-3.31,0.109-4.687,0.182c-1.936,0.1-3.492,0.182-4.63,0.08c-1.534-0.53-5.558-3.146-9.603-6.628
			C99.152,7.348,77.776,7.134,59.13,8.203c-6.54,0.38-11.91,0.759-16.905,1.192c-6.663,0.583-11.322-0.89-11.85-1.065
			C29.806,8.1,29.399,8,28.784,7.883c-9.463-1.79-14.401,2.622-15.863,7.332c-0.245,0.783-0.812,2.598-1.704,12.569
			c-0.987,5.535,1.732,12.144,9.161,14.455c0.042,0.013,0.084,0.025,0.126,0.038c0.014,1.09,0.013,2.191,0.013,3.333
			c-0.003,5.424-0.006,12.117,1.438,22.07c-5.437,13.647-7.528,22.322-7.723,23.152c-0.7,2.948-0.474,7.42,2.25,11.228
			c1.855,2.592,5.521,5.81,12.441,6.42c7.037,0.631,11.371-2.374,14.118-6.122c8.159,6.206,18.028,10.255,28.536,11.533
			c2.519,0.306,5.023,0.455,7.505,0.455c19.019-0.001,36.506-8.79,45.895-23.537c3.939-6.199,6.842-13.335,8.948-21.733
			c0.269-1.07,0.514-2.168,0.756-3.275c0.384-1.756,0.776-3.553,1.285-4.909c1.704,0.158,3.415,0.317,5.131,0.477
			c0.193,1.471,0.14,3.372,0.087,5.229c-0.032,1.13-0.06,2.252-0.056,3.312c0.031,8.884,1.117,16.287,3.482,23.3
			c6.313,18.73,24.497,32.545,46.322,35.194c7.655,0.933,15.301,0.384,22.563-1.581c2.287,3.23,5.687,5.25,10.179,6.037
			c1.373,0.242,2.646,0.349,3.824,0.349c4.704,0,7.898-1.701,9.869-3.316c3.627-2.972,5.01-7.237,5.099-10.264
			c0.016-0.521,0.12-4.489-0.275-11.182c2.463-3.006,4.564-6.241,6.279-9.675c0.463-0.622,0.857-1.308,1.167-2.049
			c4.147-9.934,5.834-16.758,7.19-22.242c0.284-1.148,0.557-2.256,0.846-3.356c0.056-0.003,0.113-0.006,0.17-0.01
			c7.727-0.452,11.947-6.235,12.318-11.838c1.514-9.874,1.402-11.83,1.359-12.574C271.52,46.697,271.52,46.691,271.519,46.688z"/>
		<path style="fill:#9A9A9A;" d="M270.731,45.899c-0.292-4.948-4.037-10.419-13.671-10.933c-0.62-0.033-1.033-0.034-1.637,0.053
			c-0.557,0.044-5.423,0.353-11.759-1.813c-4.698-1.608-9.824-3.265-16.133-5.212c-17.822-5.502-38.636-10.457-60.118,0.445
			c-4.629,2.337-9.288,3.991-10.913,4.139c-1.19-0.176-2.701-0.634-4.582-1.204c-1.29-0.392-2.753-0.835-4.388-1.269
			c-1.701-0.455-3.501-0.859-5.351-1.202c-0.394-0.073-0.792-0.121-1.191-0.144c-1.825-0.104-3.602-0.144-5.438-0.113
			c-1.75,0.028-3.31,0.109-4.687,0.182c-1.936,0.101-3.492,0.182-4.63,0.081c-1.535-0.531-5.558-3.147-9.604-6.629
			C98.364,6.56,76.988,6.346,58.342,7.415c-6.54,0.381-11.91,0.759-16.906,1.192c-6.663,0.583-11.322-0.889-11.85-1.065
			c-0.568-0.23-0.975-0.33-1.59-0.447c-9.462-1.79-14.401,2.622-15.862,7.332c-0.245,0.783-0.813,2.598-1.705,12.569
			c-0.986,5.535,1.733,12.144,9.161,14.455c0.042,0.014,0.084,0.025,0.125,0.039c0.014,1.089,0.013,2.191,0.013,3.332
			c-0.003,5.425-0.006,12.117,1.438,22.07c-5.437,13.647-7.528,22.322-7.723,23.152c-0.701,2.948-0.474,7.42,2.25,11.228
			c1.854,2.592,5.52,5.81,12.44,6.42c7.038,0.631,11.371-2.374,14.118-6.121c8.159,6.206,18.028,10.254,28.536,11.533
			c2.52,0.306,5.024,0.454,7.505,0.454c19.019-0.001,36.506-8.79,45.895-23.537c3.939-6.198,6.843-13.334,8.948-21.733
			c0.268-1.069,0.513-2.167,0.755-3.275c0.384-1.756,0.776-3.553,1.286-4.909c1.704,0.158,3.415,0.317,5.131,0.478
			c0.193,1.472,0.14,3.372,0.087,5.229c-0.032,1.13-0.059,2.252-0.056,3.312c0.031,8.884,1.117,16.288,3.482,23.3
			c6.314,18.73,24.497,32.545,46.322,35.194c7.656,0.933,15.302,0.384,22.563-1.581c2.288,3.23,5.687,5.251,10.18,6.038
			c1.373,0.241,2.646,0.348,3.824,0.348c4.703,0,7.898-1.701,9.869-3.316c3.627-2.972,5.01-7.237,5.099-10.264
			c0.017-0.521,0.12-4.489-0.275-11.182c2.463-3.006,4.563-6.241,6.279-9.675c0.463-0.622,0.857-1.308,1.167-2.049
			c4.147-9.933,5.834-16.758,7.19-22.241c0.284-1.148,0.557-2.257,0.846-3.357c0.056-0.003,0.113-0.006,0.171-0.01
			c7.727-0.452,11.946-6.235,12.318-11.838c1.515-9.874,1.402-11.829,1.359-12.574C270.732,45.909,270.731,45.904,270.731,45.899z"
			/>
		<path style="fill:#8B8B8B;" d="M269.943,45.111c-0.292-4.948-4.037-10.419-13.67-10.933c-0.62-0.033-1.033-0.034-1.637,0.053
			c-0.557,0.044-5.423,0.353-11.759-1.813c-4.697-1.608-9.824-3.265-16.133-5.212c-17.822-5.501-38.635-10.457-60.118,0.445
			c-4.629,2.337-9.288,3.991-10.913,4.139c-1.191-0.176-2.701-0.634-4.582-1.204c-1.29-0.391-2.754-0.834-4.388-1.268
			c-1.701-0.455-3.501-0.859-5.351-1.202c-0.393-0.073-0.791-0.121-1.191-0.145c-1.825-0.104-3.602-0.143-5.439-0.112
			c-1.749,0.027-3.31,0.108-4.687,0.181c-1.936,0.101-3.492,0.182-4.63,0.081c-1.534-0.53-5.558-3.147-9.604-6.629
			C97.577,5.772,76.2,5.559,57.554,6.627c-6.54,0.381-11.91,0.759-16.905,1.192c-6.663,0.583-11.322-0.889-11.85-1.065
			c-0.569-0.231-0.975-0.33-1.591-0.446c-9.462-1.791-14.4,2.622-15.862,7.331c-0.245,0.783-0.812,2.598-1.704,12.57
			c-0.987,5.534,1.732,12.145,9.161,14.454c0.042,0.014,0.084,0.026,0.126,0.039c0.014,1.089,0.013,2.192,0.012,3.332
			c-0.002,5.425-0.006,12.117,1.438,22.07c-5.436,13.647-7.528,22.322-7.723,23.153c-0.7,2.947-0.474,7.42,2.25,11.227
			c1.855,2.592,5.52,5.81,12.441,6.42c7.038,0.631,11.372-2.374,14.119-6.121c8.159,6.206,18.027,10.255,28.536,11.533
			c2.519,0.306,5.023,0.455,7.505,0.455c19.019-0.002,36.506-8.791,45.895-23.538c3.938-6.198,6.842-13.334,8.948-21.733
			c0.269-1.069,0.514-2.167,0.756-3.274c0.383-1.757,0.776-3.554,1.285-4.909c1.704,0.157,3.415,0.316,5.131,0.477
			c0.193,1.472,0.14,3.372,0.087,5.229c-0.032,1.131-0.06,2.252-0.056,3.313c0.03,8.883,1.117,16.287,3.482,23.299
			c6.313,18.73,24.497,32.545,46.322,35.195c7.655,0.932,15.301,0.383,22.563-1.582c2.287,3.23,5.686,5.251,10.179,6.038
			c1.373,0.241,2.646,0.349,3.824,0.349c4.704,0,7.898-1.702,9.869-3.316c3.627-2.972,5.01-7.238,5.099-10.265
			c0.016-0.52,0.12-4.489-0.275-11.182c2.463-3.006,4.563-6.24,6.279-9.675c0.463-0.621,0.857-1.308,1.167-2.049
			c4.147-9.933,5.834-16.758,7.19-22.241c0.284-1.148,0.557-2.257,0.846-3.356c0.056-0.004,0.113-0.007,0.171-0.01
			c7.727-0.453,11.946-6.236,12.318-11.839c1.515-9.874,1.402-11.829,1.359-12.574C269.944,45.121,269.944,45.116,269.943,45.111z"
			/>
		<path style="fill:#7D7D7D;" d="M269.155,44.324c-0.292-4.948-4.036-10.42-13.67-10.934c-0.62-0.033-1.033-0.034-1.637,0.053
			c-0.557,0.044-5.423,0.354-11.758-1.814c-4.698-1.608-9.824-3.265-16.133-5.212c-17.822-5.501-38.636-10.457-60.118,0.445
			c-4.629,2.338-9.288,3.991-10.913,4.139c-1.19-0.176-2.701-0.633-4.582-1.204c-1.29-0.391-2.753-0.834-4.388-1.269
			c-1.701-0.454-3.501-0.859-5.351-1.202c-0.394-0.073-0.792-0.121-1.191-0.145c-1.825-0.104-3.602-0.143-5.439-0.112
			c-1.749,0.027-3.31,0.108-4.686,0.181c-1.937,0.101-3.492,0.183-4.63,0.081c-1.535-0.53-5.558-3.147-9.604-6.629
			C96.788,4.984,75.412,4.771,56.767,5.84c-6.54,0.38-11.91,0.759-16.906,1.192c-6.663,0.583-11.322-0.889-11.85-1.066
			c-0.568-0.23-0.975-0.329-1.59-0.446c-9.462-1.791-14.401,2.622-15.863,7.332c-0.245,0.782-0.812,2.597-1.704,12.569
			c-0.986,5.534,1.732,12.144,9.161,14.455c0.042,0.013,0.084,0.025,0.125,0.038c0.014,1.089,0.013,2.191,0.013,3.332
			c-0.003,5.425-0.006,12.117,1.438,22.07c-5.436,13.648-7.528,22.322-7.723,23.153c-0.7,2.947-0.474,7.42,2.251,11.228
			c1.854,2.591,5.52,5.809,12.44,6.42c7.037,0.63,11.371-2.375,14.118-6.122c8.159,6.206,18.028,10.255,28.536,11.533
			c2.52,0.306,5.024,0.455,7.505,0.455c19.019-0.001,36.506-8.791,45.895-23.538c3.939-6.198,6.843-13.334,8.948-21.732
			c0.268-1.07,0.513-2.168,0.755-3.275c0.384-1.756,0.776-3.553,1.286-4.909c1.704,0.157,3.415,0.316,5.131,0.477
			c0.193,1.472,0.14,3.372,0.087,5.228c-0.032,1.131-0.059,2.253-0.056,3.313c0.031,8.884,1.117,16.287,3.482,23.3
			c6.313,18.729,24.497,32.545,46.322,35.194c7.656,0.933,15.302,0.384,22.563-1.581c2.287,3.229,5.687,5.25,10.18,6.037
			c1.373,0.242,2.646,0.349,3.824,0.349c4.704,0,7.898-1.701,9.869-3.316c3.627-2.972,5.01-7.237,5.099-10.265
			c0.016-0.52,0.12-4.489-0.275-11.182c2.463-3.006,4.563-6.24,6.279-9.675c0.463-0.621,0.857-1.308,1.167-2.049
			c4.147-9.933,5.834-16.757,7.19-22.241c0.284-1.148,0.557-2.256,0.846-3.357c0.056-0.003,0.113-0.007,0.17-0.01
			c7.727-0.453,11.947-6.235,12.318-11.839c1.515-9.874,1.402-11.829,1.359-12.573C269.156,44.333,269.156,44.328,269.155,44.324z"
			/>
		<path style="fill:#6E6E6E;" d="M268.368,43.536c-0.292-4.948-4.037-10.419-13.671-10.934c-0.62-0.033-1.032-0.034-1.637,0.054
			c-0.557,0.043-5.423,0.353-11.759-1.814c-4.697-1.608-9.824-3.264-16.133-5.211c-17.822-5.502-38.635-10.457-60.118,0.444
			c-4.629,2.338-9.288,3.991-10.913,4.14c-1.191-0.176-2.701-0.634-4.582-1.205c-1.29-0.391-2.754-0.834-4.388-1.269
			c-1.701-0.454-3.501-0.858-5.351-1.202c-0.393-0.072-0.791-0.121-1.191-0.145c-1.825-0.104-3.602-0.142-5.439-0.112
			c-1.75,0.028-3.31,0.109-4.686,0.181c-1.937,0.101-3.492,0.183-4.63,0.081c-1.535-0.53-5.558-3.146-9.604-6.628
			C96.001,4.196,74.624,3.982,55.979,5.052c-6.54,0.38-11.91,0.759-16.906,1.192c-6.663,0.582-11.321-0.89-11.85-1.066
			c-0.569-0.23-0.975-0.329-1.591-0.446C16.17,2.941,11.231,7.353,9.77,12.064c-0.245,0.783-0.813,2.597-1.704,12.569
			c-0.987,5.535,1.732,12.145,9.161,14.455c0.042,0.013,0.084,0.025,0.126,0.038c0.014,1.09,0.013,2.191,0.012,3.333
			c-0.002,5.424-0.006,12.117,1.438,22.07c-5.437,13.648-7.528,22.322-7.723,23.152c-0.701,2.947-0.474,7.42,2.25,11.228
			c1.854,2.592,5.52,5.81,12.441,6.42c7.038,0.63,11.371-2.374,14.119-6.122c8.159,6.206,18.027,10.255,28.536,11.533
			c2.519,0.306,5.023,0.455,7.505,0.455c19.02-0.001,36.506-8.791,45.895-23.537c3.938-6.199,6.842-13.335,8.948-21.733
			c0.269-1.07,0.514-2.168,0.756-3.275c0.383-1.756,0.776-3.553,1.285-4.909c1.704,0.158,3.415,0.316,5.131,0.477
			c0.193,1.472,0.14,3.373,0.087,5.229c-0.032,1.13-0.06,2.252-0.056,3.311c0.03,8.884,1.117,16.287,3.481,23.3
			c6.314,18.729,24.498,32.545,46.322,35.194c7.656,0.933,15.302,0.384,22.563-1.581c2.288,3.23,5.686,5.25,10.18,6.037
			c1.373,0.242,2.646,0.349,3.824,0.349c4.704,0,7.898-1.701,9.869-3.316c3.627-2.972,5.01-7.237,5.099-10.264
			c0.016-0.521,0.12-4.49-0.275-11.182c2.463-3.006,4.563-6.241,6.279-9.675c0.463-0.622,0.857-1.308,1.167-2.05
			c4.147-9.933,5.834-16.757,7.19-22.241c0.284-1.148,0.557-2.256,0.846-3.356c0.056-0.003,0.113-0.006,0.171-0.01
			c7.727-0.453,11.946-6.235,12.318-11.838c1.515-9.875,1.402-11.83,1.359-12.574C268.369,43.546,268.368,43.54,268.368,43.536z"/>
		<path style="fill:#606060;" d="M267.58,42.748c-0.292-4.948-4.037-10.419-13.67-10.933c-0.62-0.034-1.033-0.035-1.637,0.053
			c-0.557,0.043-5.423,0.352-11.758-1.813c-4.698-1.608-9.824-3.265-16.133-5.212c-17.822-5.502-38.636-10.457-60.118,0.444
			c-4.629,2.338-9.288,3.992-10.913,4.14c-1.191-0.176-2.701-0.634-4.582-1.204c-1.29-0.392-2.753-0.835-4.388-1.269
			c-1.701-0.455-3.501-0.859-5.351-1.203c-0.394-0.072-0.792-0.121-1.191-0.144c-1.825-0.105-3.603-0.144-5.439-0.113
			c-1.749,0.028-3.31,0.109-4.686,0.182c-1.937,0.1-3.492,0.182-4.63,0.08c-1.534-0.53-5.55-3.154-9.603-6.628
			C95.245,3.371,73.836,3.194,55.191,4.264c-6.541,0.381-11.91,0.759-16.906,1.192c-6.663,0.583-11.322-0.889-11.85-1.065
			c-0.569-0.23-0.975-0.33-1.59-0.447c-9.462-1.79-14.401,2.622-15.863,7.332c-0.245,0.783-0.812,2.598-1.704,12.569
			C6.291,29.38,9.01,35.989,16.438,38.3c0.042,0.013,0.084,0.025,0.126,0.038c0.014,1.09,0.013,2.191,0.013,3.333
			c-0.003,5.425-0.006,12.117,1.438,22.07c-5.437,13.648-7.528,22.322-7.723,23.152c-0.7,2.948-0.474,7.42,2.251,11.228
			c1.854,2.592,5.52,5.81,12.44,6.42c7.037,0.631,11.371-2.374,14.118-6.121c8.159,6.205,18.028,10.254,28.536,11.532
			c2.519,0.306,5.024,0.455,7.505,0.455c19.019-0.001,36.506-8.79,45.895-23.537c3.938-6.198,6.871-13.327,8.948-21.733
			c0.271-1.069,0.513-2.167,0.755-3.275c0.384-1.756,0.776-3.553,1.285-4.909c1.704,0.158,3.415,0.317,5.131,0.478
			c0.193,1.471,0.139,3.372,0.087,5.229c-0.032,1.13-0.062,2.252-0.056,3.312c0.011,8.884,1.117,16.288,3.481,23.3
			c6.313,18.73,24.497,32.545,46.322,35.194c7.656,0.933,15.302,0.384,22.563-1.581c2.287,3.23,5.686,5.25,10.18,6.038
			c1.373,0.241,2.645,0.348,3.824,0.348c4.704,0,7.898-1.701,9.869-3.316c3.627-2.972,5.01-7.237,5.099-10.264
			c0.016-0.521,0.12-4.489-0.275-11.182c2.463-3.006,4.563-6.241,6.279-9.675c0.463-0.622,0.857-1.308,1.167-2.049
			c4.147-9.934,5.834-16.758,7.19-22.242c0.284-1.148,0.557-2.256,0.846-3.356c0.056-0.003,0.113-0.006,0.17-0.01
			c7.726-0.469,11.947-6.235,12.318-11.838c1.514-9.874,1.402-11.829,1.359-12.574C267.581,42.758,267.58,42.752,267.58,42.748z"/>
	</g>
	<path style="fill:#FFFFFF;" d="M267.58,42.748c-0.292-4.948-4.037-10.419-13.67-10.933c-0.62-0.034-1.033-0.035-1.637,0.053
		c-0.557,0.043-5.423,0.352-11.758-1.813c-4.698-1.608-9.824-3.265-16.133-5.212c-17.822-5.502-38.636-10.457-60.118,0.444
		c-4.629,2.338-9.288,3.992-10.913,4.14c-1.191-0.176-2.701-0.634-4.582-1.204c-1.29-0.392-2.753-0.835-4.388-1.269
		c-1.701-0.455-3.501-0.859-5.351-1.203c-0.394-0.072-0.792-0.121-1.191-0.144c-1.825-0.105-3.603-0.144-5.439-0.113
		c-1.749,0.028-3.31,0.109-4.686,0.182c-1.937,0.1-3.492,0.182-4.63,0.08c-1.534-0.53-5.55-3.154-9.603-6.628
		C95.245,3.371,73.836,3.194,55.191,4.264c-6.541,0.381-11.91,0.759-16.906,1.192c-6.663,0.583-11.322-0.889-11.85-1.065
		c-0.569-0.23-0.975-0.33-1.59-0.447c-9.462-1.79-14.401,2.622-15.863,7.332c-0.245,0.783-0.812,2.598-1.704,12.569
		C6.291,29.38,9.01,35.989,16.438,38.3c0.042,0.013,0.084,0.025,0.126,0.038c0.014,1.09,0.013,2.191,0.013,3.333
		c-0.003,5.425-0.006,12.117,1.438,22.07c-5.437,13.648-7.528,22.322-7.723,23.152c-0.7,2.948-0.474,7.42,2.251,11.228
		c1.854,2.592,5.52,5.81,12.44,6.42c7.037,0.631,11.371-2.374,14.118-6.121c8.159,6.205,18.028,10.254,28.536,11.532
		c2.519,0.306,5.024,0.455,7.505,0.455c19.019-0.001,36.506-8.79,45.895-23.537c3.938-6.198,6.871-13.327,8.948-21.733
		c0.271-1.069,0.513-2.167,0.755-3.275c0.384-1.756,0.776-3.553,1.285-4.909c1.704,0.158,3.415,0.317,5.131,0.478
		c0.193,1.471,0.139,3.372,0.087,5.229c-0.032,1.13-0.062,2.252-0.056,3.312c0.011,8.884,1.117,16.288,3.481,23.3
		c6.313,18.73,24.497,32.545,46.322,35.194c7.656,0.933,15.302,0.384,22.563-1.581c2.287,3.23,5.686,5.25,10.18,6.038
		c1.373,0.241,2.645,0.348,3.824,0.348c4.704,0,7.898-1.701,9.869-3.316c3.627-2.972,5.01-7.237,5.099-10.264
		c0.016-0.521,0.12-4.489-0.275-11.182c2.463-3.006,4.563-6.241,6.279-9.675c0.463-0.622,0.857-1.308,1.167-2.049
		c4.147-9.934,5.834-16.758,7.19-22.242c0.284-1.148,0.557-2.256,0.846-3.356c0.056-0.003,0.113-0.006,0.17-0.01
		c7.726-0.469,11.947-6.235,12.318-11.838c1.514-9.874,1.402-11.829,1.359-12.574C267.581,42.758,267.58,42.752,267.58,42.748z"/>
	<g>
		<g>
			<path style="fill:#4A4B4C;" d="M225.078,75.414c-4.513-24.604-23.73-24.683-23.73-24.683L22.01,16.081l-0.73-0.139l3.471,12.238
				c0,0,172.644,28.129,180.213,31.755c7.593,3.626,9.232,35.247,10.219,42.834c0.992,7.573-1.316,15.479,6.198,16.795
				c7.519,1.324,7.649-4.162,7.649-4.162S229.582,100.028,225.078,75.414z"/>
			<path style="fill:#4A4B4C;" d="M33.733,51.488c10.742-22.598,29.309-17.687,29.309-17.687l182.2,13.087l0.73,0.053l-6.522,10.915
				c0,0-174.038-17.646-182.295-16.104c-8.26,1.53-18.059,31.65-20.972,38.716c-2.927,7.058-2.75,15.29-10.353,14.611
				c-7.599-0.671-6.292-5.999-6.292-5.999S22.99,74.084,33.733,51.488z"/>
			<g>
				<g>
					<path d="M258.096,43.308c-0.104-1.761-4.693-2.006-4.693-2.006s-6.838,0.861-15.966-2.26
						c-5.243-1.795-10.537-3.479-15.859-5.122c-17.98-5.55-35.433-9.083-53.033-0.152c-1.256,0.635-11.399,5.697-16.098,5.122
						c-3.139-0.377-6.224-1.617-10.52-2.758c-1.392-0.372-2.93-0.725-4.631-1.04c-1.728-0.099-3.302-0.121-4.745-0.099
						c-4.446,0.071-7.742,0.536-10.872,0.167c-4.711-0.587-13.349-7.934-14.411-8.844c-14.929-12.9-32.74-13.648-51.526-12.568
						c-5.525,0.321-11.078,0.691-16.628,1.172c-9.593,0.84-16.039-1.643-16.039-1.643s-4.502-0.853-5.026,0.834
						c-0.527,1.685-1.358,11.14-1.358,11.14s-0.834,2.919,2.544,3.97c3.375,1.039,6.66,1.445,6.815,8.153
						c0.135,6.688-0.389,13.642,1.561,26.303c0,0-0.031-0.456-0.014-1.299c2.913,19.414,19.465,35.501,41.183,38.144
						c16.569,2.009,34.997-4.231,44.238-18.746c3.736-5.88,6.091-12.23,7.759-18.977c1.144-4.502,1.668-9.582,4.631-13.346
						c2.682-3.387,7.178-3.935,10.599-3.764c3.367,0.653,7.604,2.268,9.39,6.184c1.98,4.378,1.265,9.438,1.29,14.087
						c0.009,6.936,0.758,13.675,2.983,20.276c5.499,16.314,21.896,26.787,38.468,28.799c21.699,2.64,41.62-9.008,49.123-27.149
						c-0.186,0.809-0.332,1.237-0.332,1.237c4.93-11.808,6.077-18.685,7.826-25.147c1.738-6.472,5.029-6.077,8.57-6.283
						c3.525-0.214,3.42-3.248,3.42-3.248S258.198,45.077,258.096,43.308z M68.6,96.679c-22.863-2.786-39.079-23.215-37.18-45.071
						c2.673-30.664,23.601-34.033,46.548-31.909c29.016,2.679,39.499,20.806,36.854,42.584
						C112.182,84.063,91.488,99.451,68.6,96.679z M236.121,76.507c-3.389,21.677-24.031,37.617-46.9,34.839
						c-22.877-2.78-39.285-22.688-36.62-44.475c2.637-21.767,17.155-36.861,45.976-32.503
						C221.364,37.805,240.883,46.091,236.121,76.507z"/>
					<path style="fill:#656668;" d="M77.968,19.698c-22.947-2.124-43.874,1.245-46.548,31.909
						C29.521,73.464,45.737,93.893,68.6,96.679c22.888,2.772,43.582-12.616,46.221-34.397
						C117.467,40.504,106.983,22.377,77.968,19.698z"/>
					<path style="fill:#656668;" d="M198.578,34.368c-28.821-4.358-43.339,10.736-45.976,32.503
						c-2.665,21.787,13.743,41.694,36.62,44.475c22.869,2.778,43.511-13.162,46.9-34.839
						C240.883,46.091,221.364,37.805,198.578,34.368z"/>
				</g>
				<path style="fill:#FFFFFF;" d="M19.44,18.34c0,0,0-0.293,0.197-0.8c0.191-0.474,0.628-1.265,1.642-1.598
					c0.989-0.414,2.313-0.104,3.626,0.172c0.68,0.146,1.395,0.293,2.167,0.445c0.764,0.155,1.563,0.188,2.406,0.293
					c0.834,0.076,1.702,0.231,2.62,0.248c0.905,0,1.857-0.017,2.82-0.034c0.481,0,0.969,0,1.462,0h0.755l0.758-0.102
					c1.006-0.112,2.042-0.217,3.093-0.338c1.062-0.118,2.133-0.229,3.215-0.352c1.082-0.169,2.189-0.324,3.308-0.471
					c2.234-0.302,4.493-0.553,6.773-0.767c4.544-0.36,9.1-0.55,13.391-0.529c2.155-0.011,4.229,0.09,6.178,0.236
					c1.966,0.141,3.814,0.366,5.519,0.578c1.69,0.276,3.246,0.532,4.595,0.909c1.375,0.305,2.513,0.716,3.462,1.015
					c0.955,0.293,1.643,0.696,2.133,0.895c0.49,0.215,0.75,0.324,0.75,0.324s-0.276-0.084-0.767-0.265
					c-0.507-0.155-1.228-0.481-2.192-0.722c-0.972-0.242-2.121-0.574-3.496-0.78c-1.353-0.287-2.897-0.439-4.581-0.673
					c-1.693-0.152-3.533-0.299-5.477-0.369c-1.941-0.059-3.987-0.076-6.117-0.059c-4.254,0.024-8.784,0.281-13.281,0.703
					c-2.268,0.19-4.536,0.403-6.753,0.68c-1.094,0.118-2.201,0.265-3.294,0.411c-1.087,0.112-2.175,0.217-3.248,0.327
					c-1.074,0.084-2.122,0.189-3.153,0.275l-0.772,0.06l-0.766-0.017c-0.507-0.018-1.006-0.028-1.504-0.043
					c-0.989-0.033-1.95-0.061-2.871-0.087c-0.918-0.06-1.814-0.251-2.674-0.353c-0.842-0.151-1.685-0.211-2.431-0.402
					c-0.75-0.206-1.471-0.395-2.133-0.586c-0.676-0.161-1.307-0.378-1.871-0.454c-0.578-0.112-1.11-0.067-1.566,0.059
					c-0.944,0.248-1.434,0.946-1.665,1.4C19.466,18.056,19.44,18.34,19.44,18.34z"/>
				<path style="fill:#FFFFFF;" d="M255.809,47.094c0,0,0.02-0.29-0.084-0.806c-0.113-0.499-0.431-1.299-1.279-1.761
					c-0.423-0.242-0.921-0.406-1.513-0.437c-0.569-0.057-1.232-0.012-1.919-0.012c-0.696,0.017-1.442,0.034-2.214,0.051
					c-0.783,0.019-1.592-0.127-2.46-0.186c-0.859-0.104-1.761-0.13-2.69-0.305c-0.893-0.185-1.832-0.386-2.804-0.6
					c-0.482-0.102-0.969-0.206-1.468-0.308l-0.749-0.172l-0.738-0.245c-0.96-0.332-1.975-0.667-2.983-1.02
					c-1.014-0.363-2.034-0.732-3.093-1.093c-1.023-0.412-2.054-0.807-3.094-1.201c-2.079-0.803-4.22-1.549-6.367-2.271
					c-4.296-1.487-8.629-2.828-12.737-3.868c-2.062-0.516-4.074-1.006-5.964-1.408c-1.899-0.403-3.713-0.696-5.406-0.955
					c-1.685-0.181-3.22-0.403-4.607-0.457c-1.374-0.126-2.578-0.067-3.575-0.067c-0.989,0-1.772,0.147-2.296,0.172
					c-0.53,0.051-0.823,0.079-0.823,0.079s0.293-0.051,0.817-0.147c0.513-0.07,1.288-0.293,2.302-0.344
					c0.978-0.079,2.2-0.206,3.592-0.164c1.383-0.042,2.958,0.08,4.677,0.224c1.699,0.188,3.558,0.413,5.491,0.755
					c1.924,0.338,3.969,0.716,6.043,1.248c4.184,1.014,8.568,2.284,12.889,3.75c2.167,0.743,4.3,1.526,6.396,2.353
					c1.048,0.402,2.079,0.833,3.093,1.253c1.014,0.363,2.037,0.732,3.043,1.102c0.989,0.369,1.958,0.732,2.913,1.085l0.713,0.254
					l0.722,0.191c0.484,0.118,0.963,0.239,1.434,0.36c0.938,0.239,1.859,0.481,2.735,0.705c0.885,0.205,1.761,0.256,2.595,0.393
					c0.842,0.085,1.631,0.251,2.418,0.288c0.772,0.03,1.513,0.059,2.197,0.09c1.333,0.037,2.699,0.07,3.55,0.698
					c0.921,0.566,1.141,1.435,1.229,1.95C255.86,46.813,255.809,47.094,255.809,47.094z"/>
				<path style="fill:#FFFFFF;" d="M120.03,39.481c0,0,0.961-0.577,2.533-1.141c0.791-0.305,1.727-0.586,2.741-0.82
					c1.034-0.248,2.139-0.42,3.257-0.541c1.118-0.085,2.245-0.136,3.302-0.06c0.532,0.025,1.031,0.06,1.513,0.148
					c0.479,0.078,0.935,0.129,1.338,0.239c0.828,0.199,1.507,0.405,1.953,0.603c0.448,0.186,0.715,0.29,0.715,0.29
					s-0.288-0.017-0.766-0.048c-0.49-0.062-1.169-0.087-1.995-0.124c-0.394-0.039-0.842,0-1.324-0.022
					c-0.456-0.017-0.936,0.022-1.451,0.022c-0.499-0.014-1.023,0.054-1.558,0.067c-0.524,0.021-1.074,0.099-1.606,0.142
					c-1.082,0.084-2.167,0.23-3.172,0.377c-1.006,0.155-1.95,0.291-2.758,0.423C121.104,39.313,120.03,39.481,120.03,39.481z"/>
			</g>
		</g>
	</g>
</g>
</svg>
